<svg width="42" height="46" viewBox="0 0 42 46" fill="none" xmlns="http://www.w3.org/2000/svg">
<rect x="0.905605" y="0.905605" width="40.1888" height="43.469" rx="20.0944" stroke="#FB7C2B" stroke-width="1.81121"/>
<path d="M15.8373 15.6895V12.2019C15.8373 11.9707 15.9225 11.7489 16.0742 11.5854C16.2258 11.4219 16.4315 11.33 16.646 11.33C16.8605 11.33 17.0662 11.4219 17.2179 11.5854C17.3696 11.7489 17.4548 11.9707 17.4548 12.2019V15.6895C17.4548 15.9207 17.3696 16.1425 17.2179 16.306C17.0662 16.4695 16.8605 16.5614 16.646 16.5614C16.4315 16.5614 16.2258 16.4695 16.0742 16.306C15.9225 16.1425 15.8373 15.9207 15.8373 15.6895ZM19.881 16.5614C19.9872 16.5614 20.0923 16.5389 20.1905 16.495C20.2886 16.4512 20.3777 16.387 20.4528 16.306C20.5279 16.2251 20.5875 16.129 20.6281 16.0232C20.6688 15.9174 20.6897 15.804 20.6897 15.6895V12.2019C20.6897 11.9707 20.6045 11.7489 20.4528 11.5854C20.3012 11.4219 20.0955 11.33 19.881 11.33C19.6665 11.33 19.4608 11.4219 19.3091 11.5854C19.1574 11.7489 19.0722 11.9707 19.0722 12.2019V15.6895C19.0722 15.804 19.0931 15.9174 19.1338 16.0232C19.1744 16.129 19.234 16.2251 19.3091 16.306C19.3842 16.387 19.4734 16.4512 19.5715 16.495C19.6696 16.5389 19.7748 16.5614 19.881 16.5614ZM23.1159 16.5614C23.2221 16.5614 23.3273 16.5389 23.4254 16.495C23.5235 16.4512 23.6127 16.387 23.6878 16.306C23.7629 16.2251 23.8224 16.129 23.8631 16.0232C23.9037 15.9174 23.9246 15.804 23.9246 15.6895V12.2019C23.9246 11.9707 23.8394 11.7489 23.6878 11.5854C23.5361 11.4219 23.3304 11.33 23.1159 11.33C22.9014 11.33 22.6957 11.4219 22.544 11.5854C22.3924 11.7489 22.3072 11.9707 22.3072 12.2019V15.6895C22.3072 15.804 22.3281 15.9174 22.3687 16.0232C22.4094 16.129 22.4689 16.2251 22.544 16.306C22.6191 16.387 22.7083 16.4512 22.8064 16.495C22.9045 16.5389 23.0097 16.5614 23.1159 16.5614ZM32.8207 22.6647V23.5366C32.8194 24.6453 32.4268 25.7119 31.7226 26.5198C31.0183 27.3278 30.0553 27.8165 29.029 27.8868C28.4762 29.5691 27.536 31.0724 26.2966 32.2556H28.7771C28.9915 32.2556 29.1972 32.3474 29.3489 32.5109C29.5006 32.6745 29.5858 32.8962 29.5858 33.1275C29.5858 33.3587 29.5006 33.5805 29.3489 33.744C29.1972 33.9075 28.9915 33.9994 28.7771 33.9994H23.6033C23.5994 33.9994 23.5956 34 23.5918 34C23.589 34 23.5862 33.9994 23.5833 33.9994H16.1567C16.152 33.9993 16.1475 33.9995 16.1429 33.9994H10.9849C10.7704 33.9994 10.5647 33.9075 10.413 33.744C10.2614 33.5805 10.1761 33.3587 10.1761 33.1275C10.1761 32.8962 10.2614 32.6745 10.413 32.5109C10.5647 32.3474 10.7704 32.2556 10.9849 32.2556H13.4653C12.4336 31.2726 11.607 30.065 11.0401 28.7124C10.4731 27.3597 10.1786 25.8928 10.1761 24.4085V19.1771C10.1761 19.0626 10.1971 18.9492 10.2377 18.8434C10.2783 18.7376 10.3379 18.6415 10.413 18.5606C10.4881 18.4796 10.5773 18.4154 10.6754 18.3716C10.7735 18.3277 10.8787 18.3052 10.9849 18.3052H28.7771C29.8491 18.3065 30.877 18.7662 31.635 19.5835C32.3931 20.4008 32.8195 21.5089 32.8207 22.6647ZM27.9683 20.049H11.7936V24.4085C11.7967 26.0455 12.2257 27.6487 13.0319 29.0359C13.8381 30.4231 14.9891 31.5386 16.3542 32.2556H23.4078C24.4279 31.7196 25.3324 30.959 26.0631 30.0229C26.7937 29.0869 27.3342 27.9961 27.6498 26.8209C27.655 26.7975 27.6607 26.7743 27.6677 26.7517C27.8667 25.9891 27.9679 25.2007 27.9683 24.4085V20.049ZM31.2033 22.6647C31.2026 22.124 31.0468 21.5967 30.7572 21.1553C30.4676 20.7138 30.0585 20.3798 29.5858 20.199V24.4085C29.5853 24.9565 29.5447 25.5037 29.4642 26.0448C29.9659 25.8843 30.4062 25.5536 30.7195 25.1016C31.0329 24.6497 31.2025 24.1008 31.2033 23.5366V22.6647Z" fill="#FB7C2B" stroke="#FB7C2B"/>
</svg>
